<?xml version="1.0" encoding="utf-8"?>
<!-- Generator: Adobe Illustrator 18.1.1, SVG Export Plug-In . SVG Version: 6.00 Build 0)  -->
<!DOCTYPE svg PUBLIC "-//W3C//DTD SVG 1.1//EN" "http://www.w3.org/Graphics/SVG/1.1/DTD/svg11.dtd">
<svg version="1.1" id="_x31_0" xmlns="http://www.w3.org/2000/svg" xmlns:xlink="http://www.w3.org/1999/xlink" x="0px" y="0px"
	 viewBox="0 0 512 512" style="enable-background:new 0 0 512 512;" xml:space="preserve">
<style type="text/css">
	.st0{fill:#374149;}
</style>
<g>
	<path class="st0" d="M506.117,154.492H358.203V31.766c0-4.824-3.84-8.668-8.582-8.668H162.465c-4.824,0-8.668,3.844-8.668,8.668
		v122.726H5.89c-3.27,0-5.89,2.699-5.89,5.969v322.554c0,3.27,2.621,5.887,5.89,5.887h216.66c3.266,0,5.883-2.618,5.883-5.887
		v-84.472c0-3.274,2.699-5.887,5.973-5.887h43.191c3.355,0,5.969,2.614,5.969,5.887v84.472c0,3.27,2.621,5.887,5.969,5.887h216.582
		c3.27,0,5.883-2.618,5.883-5.887V160.461C512,157.191,509.386,154.492,506.117,154.492z M80.785,392.258h21.668
		c3.27,0,5.969,2.699,5.969,5.969v36.141c0,3.27-2.699,5.969-5.969,5.969H80.785c-3.269,0-5.886-2.699-5.886-5.969v-36.141
		C74.898,394.957,77.516,392.258,80.785,392.258z M102.453,349.332H80.785c-3.269,0-5.886-2.695-5.886-5.969v-36.218
		c0-3.274,2.618-5.887,5.886-5.887h21.668c3.27,0,5.969,2.614,5.969,5.887v36.218C108.422,346.637,105.722,349.332,102.453,349.332z
		 M102.453,258.25H80.785c-3.269,0-5.886-2.617-5.886-5.886v-36.222c0-3.27,2.618-5.969,5.886-5.969h21.668
		c3.27,0,5.969,2.699,5.969,5.969v36.222C108.422,255.633,105.722,258.25,102.453,258.25z M327.379,392.258h21.671
		c3.27,0,5.969,2.699,5.969,5.969v36.141c0,3.27-2.699,5.969-5.969,5.969h-21.671c-3.27,0-5.969-2.699-5.969-5.969v-36.141
		C321.41,394.957,324.11,392.258,327.379,392.258z M349.05,349.332h-21.671c-3.27,0-5.969-2.695-5.969-5.969v-36.218
		c0-3.274,2.699-5.887,5.969-5.887h21.671c3.27,0,5.969,2.614,5.969,5.887v36.218C355.019,346.637,352.32,349.332,349.05,349.332z
		 M349.05,258.25h-21.671c-3.27,0-5.969-2.617-5.969-5.886v-36.222c0-3.27,2.699-5.969,5.969-5.969h21.671
		c3.27,0,5.969,2.699,5.969,5.969v36.222C355.019,255.633,352.32,258.25,349.05,258.25z M256,59.809
		c28.211,0,51.102,22.812,51.102,51.102c0,28.21-22.89,51.105-51.102,51.105c-28.207,0-51.102-22.894-51.102-51.105
		C204.898,82.621,227.793,59.809,256,59.809z M184.621,210.172c3.356,0,5.969,2.699,5.969,5.969v36.222
		c0,3.27-2.613,5.886-5.969,5.886h-21.664c-3.274,0-5.89-2.617-5.89-5.886v-36.222c0-3.27,2.617-5.969,5.89-5.969H184.621z
		 M162.957,392.258h21.664c3.356,0,5.969,2.699,5.969,5.969v36.141c0,3.27-2.613,5.969-5.969,5.969h-21.664
		c-3.274,0-5.89-2.699-5.89-5.969v-36.141C157.066,394.957,159.683,392.258,162.957,392.258z M184.621,349.332h-21.664
		c-3.274,0-5.89-2.695-5.89-5.969v-36.218c0-3.274,2.617-5.887,5.89-5.887h21.664c3.356,0,5.969,2.614,5.969,5.887v36.218
		C190.59,346.637,187.977,349.332,184.621,349.332z M245.211,301.258h21.664c3.27,0,5.89,2.614,5.89,5.887v36.218
		c0,3.274-2.621,5.969-5.89,5.969h-21.664c-3.356,0-5.969-2.695-5.969-5.969v-36.218
		C239.242,303.871,241.855,301.258,245.211,301.258z M266.875,258.25h-21.664c-3.356,0-5.969-2.617-5.969-5.886v-36.222
		c0-3.27,2.613-5.969,5.969-5.969h21.664c3.27,0,5.89,2.699,5.89,5.969v36.222C272.766,255.633,270.145,258.25,266.875,258.25z
		 M431.218,258.25h-21.664c-3.27,0-5.969-2.617-5.969-5.886v-36.222c0-3.27,2.699-5.969,5.969-5.969h21.664
		c3.27,0,5.969,2.699,5.969,5.969v36.222C437.187,255.633,434.488,258.25,431.218,258.25z M409.554,301.258h21.664
		c3.27,0,5.969,2.614,5.969,5.887v36.218c0,3.274-2.699,5.969-5.969,5.969h-21.664c-3.27,0-5.969-2.695-5.969-5.969v-36.218
		C403.586,303.871,406.285,301.258,409.554,301.258z M409.554,392.258h21.664c3.27,0,5.969,2.699,5.969,5.969v36.141
		c0,3.27-2.699,5.969-5.969,5.969h-21.664c-3.27,0-5.969-2.699-5.969-5.969v-36.141
		C403.586,394.957,406.285,392.258,409.554,392.258z"/>
	<circle class="st0" cx="256.004" cy="110.873" r="8.858"/>
	<path class="st0" d="M259.922,98.218c0.066,0,0.122-0.054,0.122-0.121v-3.883V83.262V72.07c0-2.211-1.793-4.004-4.004-4.004
		c-2.211,0-4.004,1.793-4.004,4.004v11.191v10.953v3.883c0,0.066,0.058,0.121,0.121,0.121H259.922z"/>
	<path class="st0" d="M262.641,123.778l2.746,2.742l7.742,7.746l7.914,7.914c1.562,1.562,4.098,1.562,5.66,0
		c1.566-1.563,1.566-4.098,0-5.661l-7.914-7.914l-7.742-7.746l-2.746-2.746c-0.047-0.047-0.125-0.043-0.172,0l-5.488,5.492
		C262.594,123.652,262.594,123.73,262.641,123.778z"/>
</g>
</svg>
