<?xml version="1.0" encoding="utf-8"?>
<!-- Generator: Adobe Illustrator 19.1.1, SVG Export Plug-In . SVG Version: 6.00 Build 0)  -->
<svg version="1.1" id="_x31_0" xmlns="http://www.w3.org/2000/svg" xmlns:xlink="http://www.w3.org/1999/xlink" x="0px" y="0px"
	 viewBox="0 0 512 512" style="enable-background:new 0 0 512 512;" xml:space="preserve">
<style type="text/css">
	.st0{fill:#374149;}
</style>
<g>
	<path class="st0" d="M65.206,490.27C120.975,504.465,186.967,512,256.053,512c68.954,0,134.813-7.469,190.645-21.664
		c25.699-6.527,42.113-32.153,37.402-58.258c-0.942-5.379-2.219-10.828-3.699-16.41c-1.278-4.914-2.555-8.95-3.969-12.718
		c-1.278-3.966-2.89-8.07-4.91-12.711c-7.871-18.633-18.027-34.242-28.59-43.859c-9.957-9.153-33.301-21.462-80.457-45.477
		l-1.278-0.672c-7.778-4.019-14.02-7.648-18.801-10.738c-0.18-0.125-0.387-0.25-0.566-0.375c4.442-5.714,9.347-13.378,12.442-22.254
		l0.266-0.742l0.336-1.14c1.21-3.434,2.289-6.864,3.297-10.227c12.206-7.168,20.75-19.894,26.324-34.203
		c0.027-0.074,0.062-0.144,0.09-0.218c3.898-10.078,6.371-20.902,7.422-31.23c0.874-7.473,0.136-17.293-5.446-27.582
		c0.402-1.418,0.805-3.031,1.141-4.71c1.011-4.238,1.816-9.082,2.625-14.668c0.606-4.57,0.875-9.618,0.606-14.863
		c-0.336-9.825-2.422-19.914-5.922-29.129c-3.293-8.746-7.801-16.618-13.386-23.41l-1.41-1.614l-0.203-0.203
		c-2.824-3.297-5.718-6.254-8.542-8.878c-7.938-7.672-18.164-16.078-29.266-21.594C313.975,16.215,289.553,2.355,257.87,0.203
		h-0.809c-1.141-0.07-2.286-0.07-3.496-0.133L251.682,0h-1.546c-33.637,0-78.035,24.687-101.11,56.172l-6.457,8.878v1.141
		c-0.203,0.34-0.406,0.676-0.606,1.012c-2.488,4.508-5.047,9.285-7.332,14.125c-3.969,8.481-6.726,15.879-8.543,23.211
		c-1.278,4.238-2.156,8.676-2.625,13.117c-1.481,10.426-1.348,21.122,0.402,33.434l0.336,2.555c0.336,2.222,0.675,4.441,1.078,6.664
		c-5.179,9.55-5.851,18.902-5.179,26.301c3.5,33.637,15.336,57.449,33.164,68.078c0.203,0.742,0.473,1.414,0.742,2.082
		c0.535,1.55,1.14,3.367,1.746,5.316l1.278,3.836l0.137,0.336l0.066,0.137l0.066,0.266c2.644,7.668,6.863,15.266,12.309,22.23
		c0.094,0.126,0.171,0.254,0.266,0.379c-4.844,3.094-11.231,6.859-19.301,11.027l-1.614,0.809
		c-46.82,23.949-69.961,36.191-79.984,45.34c-10.36,9.351-20.586,24.957-28.661,43.859l-0.066,0.199l-0.066,0.141
		c-1.48,3.492-3.16,7.664-4.777,12.374c-1.547,4.508-2.825,8.68-3.898,12.711c-1.348,4.914-2.559,10.297-3.633,16.348
		C23.295,458.718,39.307,483.61,65.206,490.27z M64.264,438.606c0.942-5.114,1.882-9.352,3.027-13.321
		c0.742-3.16,1.817-6.457,3.094-10.156c1.215-3.633,2.625-7.062,3.973-10.293c6.859-16.078,14.594-26.574,19.574-31.078
		c7.465-6.797,43.121-25.027,71.843-39.691l1.614-0.871c21.058-10.766,34.578-20.926,39.219-25.164l1.078-1.008v-33.77l-2.218-0.808
		c-1.078-0.402-2.29-1.278-3.43-2.418l-1.348-1.484c-3.766-4.301-6.863-9.414-8.41-13.922l-1.277-3.77
		c-0.809-2.418-1.547-4.706-2.219-6.66c-3.094-8.27-4.308-15.874-4.508-17.89l-0.402-4.039l-3.902,1.145
		c-1.348,0.34-2.555,0.539-3.699,0.539c-11.031,0-17.692-25.094-19.309-40.902c-0.539-5.246,2.488-8.004,6.191-10.762
		c0.539-0.406,1.008-0.809,1.41-1.074l2.152-1.821l-1.343-2.418c-0.539-1.012-1.145-2.625-1.883-4.914l-0.07-1.074l-0.336-0.27
		c-0.871-4.172-1.679-8.41-2.285-12.582c-1.547-9.953-1.75-18.23-0.606-26.031c0.27-2.625,0.809-5.246,1.614-7.871
		c1.21-5.179,3.23-10.629,6.258-17.09c1.816-3.766,3.902-7.734,6.254-11.973c1.348-2.422,2.894-4.774,4.578-7.058l0.606-0.946
		C197.393,53.481,230.897,37,250.335,37l5.046,0.133c23.746,1.618,38.68,11.707,51.531,34.778l1.008,1.683h1.95
		c3.969,0,15.137,6.66,26.238,17.356c2.218,2.086,4.64,4.578,7.129,7.534c2.89,3.5,5.382,7.871,7.133,12.715
		c2.148,5.586,3.43,11.641,3.633,17.558c0.054,1.321,0.042,2.555,0.004,3.762c-0.012,0.406-0.024,0.809-0.047,1.211
		c-0.066,1.164-0.152,2.305-0.297,3.367c-0.606,4.442-1.278,8.344-2.016,11.641c-1.144,4.906-2.289,8.539-3.297,11.434l-0.473,1.48
		c-0.738,2.29-1.41,4.238-2.015,5.586l-0.809,2.554l2.02,1.614c2.89,2.355,8.878,7.195,8.136,13.855
		c-1.074,10.363-7.87,38.684-20.246,38.684c-0.738,0-1.954-0.066-3.5-0.539l-3.09-0.926l-0.118-0.043v0.004l-0.156-0.043
		l-0.875,3.363c-0.066,0.336-0.133,0.602-0.199,1.211c-0.473,2.961-3.297,15-7.133,26.035l-0.606,1.812
		c-1.546,4.442-4.641,9.489-8.812,14.196l-0.738,0.874c-1.145,1.278-2.356,2.153-3.5,2.555l-2.153,0.808v33.77l1.078,1.008
		c1.344,1.215,13.586,11.977,39.218,25.164l1.481,0.738c28.789,14.664,64.714,32.961,72.18,39.824
		c5.046,4.574,12.781,15.137,19.507,31.078c1.684,3.902,2.961,7.133,3.969,10.359c1.078,2.824,2.086,6.055,3.164,10.156
		c1.278,4.578,2.219,8.879,3.027,13.254c1.278,7.266-3.027,14.058-10.09,15.875C384.741,467.934,321.979,475,256.053,475
		c-66.058,0-128.89-7.133-181.695-20.59C67.358,452.598,63.053,445.805,64.264,438.606z"/>
</g>
</svg>
